<?xml version="1.0" encoding="UTF-8"?>
<svg width="800" height="600" xmlns="http://www.w3.org/2000/svg">
    <!-- Небо -->
    <rect width="100%" height="100%" fill="#F5E6D3"/>
    
    <!-- Облака -->
    <g fill="#FFF5E6" opacity="0.7">
        <circle cx="100" cy="100" r="30"/>
        <circle cx="130" cy="100" r="40"/>
        <circle cx="160" cy="100" r="30"/>
        
        <circle cx="400" cy="150" r="30"/>
        <circle cx="430" cy="150" r="40"/>
        <circle cx="460" cy="150" r="30"/>
        
        <circle cx="700" cy="80" r="30"/>
        <circle cx="730" cy="80" r="40"/>
        <circle cx="760" cy="80" r="30"/>
    </g>
    
    <!-- Дома на заднем плане -->
    <g fill="#DEB887" opacity="0.3">
        <rect x="50" y="300" width="100" height="200"/>
        <polygon points="50,300 100,250 150,300" fill="#CD853F"/>
        
        <rect x="200" y="350" width="120" height="150"/>
        <polygon points="200,350 260,300 320,350" fill="#CD853F"/>
        
        <rect x="400" y="320" width="90" height="180"/>
        <polygon points="400,320 445,270 490,320" fill="#CD853F"/>
        
        <rect x="550" y="380" width="110" height="120"/>
        <polygon points="550,380 605,330 660,380" fill="#CD853F"/>
    </g>
</svg>
